<?xml version="1.0" encoding="UTF-8" standalone="no"?>
<!DOCTYPE svg PUBLIC "-//W3C//DTD SVG 1.1//EN" "http://www.w3.org/Graphics/SVG/1.1/DTD/svg11.dtd">
<svg width="100%" height="100%" viewBox="0 0 181 235" version="1.1" xmlns="http://www.w3.org/2000/svg" xmlns:xlink="http://www.w3.org/1999/xlink" xml:space="preserve" xmlns:serif="http://www.serif.com/" style="fill-rule:evenodd;clip-rule:evenodd;stroke-linejoin:round;stroke-miterlimit:2;">
    <g transform="matrix(1,0,0,1,-4657.58,-2646.53)">
        <g transform="matrix(1,0,0,1.02857,2807.58,-116.242)">
            <g transform="matrix(1,0,0,0.972222,1830,1723.53)">
                <g transform="matrix(1,0,0,1,-10.1285,943.781)">
                    <g id="图层-1" serif:id="图层 1">
                        <g>
                            <g transform="matrix(1,0,0,1,11.317,-0.893444)">
                                <g transform="matrix(1,0,0,1,14.0419,28.5289)">
                                    <g opacity="0.8">
                                        <g transform="matrix(1,0,0,1,133.245,79.9597)">
                                            <path d="M0,50.34C0.076,50.402 0.105,50.464 0.101,50.548C0.097,50.632 0.048,50.7 -0.024,50.734C-3.717,52.449 -7.432,53.69 -11.443,54.369C-11.821,54.434 -12.184,54.198 -12.404,54.026C-12.625,53.854 -12.812,53.129 -12.738,53.017C-10.516,49.625 -8.627,30.027 -14.414,32.175C-25.658,36.349 -23.439,45.205 -21.285,54.26C-21.21,54.571 -21.199,54.868 -21.412,55.068C-21.625,55.266 -21.912,55.405 -22.17,55.3C-38.075,48.797 -41.156,34.402 -38.257,18.534C-38.18,18.114 -37.882,17.973 -37.557,17.844C-37.232,17.716 -36.832,17.918 -36.648,18.151C-34.494,20.878 -33.252,28.176 -28.372,25.101C-24.749,22.819 -30.25,17.504 -33.093,16.041C-33.27,15.95 -33.634,15.397 -33.616,15.055C-33.599,14.713 -33.56,14.293 -33.243,13.985C-29.659,10.493 -25.603,7.599 -21.38,4.924C-21.032,4.703 -20.686,4.73 -20.339,4.832C-19.991,4.934 -19.737,5.322 -19.672,5.642C-18.963,9.104 -18.492,16.822 -13.487,16.205C-4.483,15.096 -12.3,5.361 -15.382,1.027C-15.525,0.825 -15.696,0.171 -15.531,-0.178C-15.366,-0.525 -15.126,-0.882 -14.702,-1.019C-11.812,-1.964 -8.911,-2.842 -5.937,-3.542C-5.354,-3.68 -4.771,-3.485 -4.37,-2.992C-3.969,-2.498 -3.866,-2.018 -4.105,-1.309C-5.888,3.963 -5.726,8.614 1.308,9.34C8.341,10.065 9.353,2.321 8.163,-3.594C8.105,-3.878 8.23,-4.22 8.413,-4.44C8.596,-4.661 8.888,-4.823 9.193,-4.839C13.521,-5.065 17.835,-5.065 22.16,-4.821C22.276,-4.815 22.363,-4.753 22.389,-4.636C22.415,-4.518 22.364,-4.456 22.249,-4.386C20.702,-3.449 18.563,-2.84 17.528,-1.167C15.489,2.129 15.475,5.062 20.09,6.647C27.343,9.136 26.466,1.142 24.64,-4.045C24.576,-4.225 24.672,-4.338 24.759,-4.456C24.845,-4.574 25.02,-4.626 25.168,-4.614C28.798,-4.31 32.409,-3.851 36.005,-3.297C36.163,-3.272 36.247,-3.157 36.302,-3.047C36.358,-2.935 36.25,-2.712 36.182,-2.684C35.103,-2.255 33.918,-0.066 34.36,0.687C35.432,2.514 37.202,3.406 39.013,2.499C40.02,1.995 38.722,-1.197 38.56,-2.147C38.542,-2.25 38.657,-2.576 38.807,-2.669C38.956,-2.762 39.227,-2.835 39.391,-2.802C43.242,-2.013 47.25,-1.178 50.959,-0.228C51.509,-0.088 51.556,0.01 51.669,0.423C51.782,0.836 51.909,0.859 51.496,1.395C48.206,5.66 44.443,10.007 40.683,14.05C40.584,14.156 40.317,14.311 40.146,14.243C39.974,14.176 39.724,14.178 39.626,13.941C37.448,8.632 32.152,8.042 28.727,10.602C22.708,15.101 25.855,18.323 29.343,18.449C32.83,18.575 30.71,18.494 32.917,18.601C33.24,18.615 33.102,18.698 33.235,18.86C33.368,19.021 33.274,19.181 33.155,19.309C31.218,21.39 29.198,23.438 27.179,25.452C27.078,25.554 26.906,25.596 26.789,25.579C26.672,25.564 26.468,25.451 26.428,25.332C24.76,20.452 19.608,14.435 15.46,19.409C10.198,25.721 16.155,28.863 21.623,30.641C21.917,30.736 22.036,30.86 22.1,31.083C22.164,31.306 22.101,31.518 21.946,31.675C18.88,34.776 15.67,37.691 12.281,40.43C12.159,40.528 11.983,40.537 11.857,40.498C11.732,40.458 11.561,40.269 11.555,40.195C11.188,35.537 6.281,20.35 3.115,30.541C1.053,37.175 5.166,40.652 8.336,45.186C8.509,45.433 8.505,45.31 8.505,45.482C8.504,45.654 8.443,45.705 8.353,45.769C6.345,47.172 4.287,48.442 2.15,49.624C2.028,49.692 1.886,49.689 1.766,49.624C1.646,49.559 1.554,49.45 1.541,49.303C1.469,48.44 0.939,47.455 0.032,47.928C-1.358,48.653 -1.016,49.517 0,50.34" style="fill:rgb(82,153,255);"/>
                                        </g>
                                    </g>
                                </g>
                                <g transform="matrix(1,0,0,1,-8.25962,-921.615)">
                                    <path d="M169.499,1042.64C163.833,1047.59 156.307,1049.45 148.352,1051.99C138.565,1055.12 128.142,1059.27 119.676,1071.28C109.811,1085.27 102.6,1109.97 102.243,1156.31C102.243,1156.86 102.69,1157.31 103.242,1157.31C103.794,1157.31 104.243,1156.86 104.243,1156.31C104.028,1110.38 110.821,1085.79 120.429,1071.8C128.634,1059.85 138.884,1055.66 148.502,1052.45C156.462,1049.8 163.997,1047.83 169.628,1042.79C169.668,1042.75 169.672,1042.69 169.636,1042.65C169.601,1042.61 169.539,1042.6 169.499,1042.64Z" style="fill:rgb(51,135,255);"/>
                                </g>
                                <g transform="matrix(1,0,0,1,-86.795,-945.848)">
                                    <path d="M197.947,1097.62C205.509,1084.63 214.655,1079.66 223.519,1076.65C232.659,1073.56 241.494,1072.57 247.932,1066.94C247.972,1066.91 248.033,1066.91 248.069,1066.95C248.104,1066.99 248.1,1067.05 248.06,1067.09C241.663,1072.81 232.813,1073.9 223.676,1077.11C214.867,1080.2 205.789,1085.28 198.427,1098.5C198.261,1098.21 198.102,1097.91 197.947,1097.62Z" style="fill:white;"/>
                                </g>
                            </g>
                            <g transform="matrix(1,0,0,1,0.744537,0.744537)">
                                <g transform="matrix(1,0,0,1,69.6129,144.018)">
                                    <path d="M0,-82.87C1.375,-87.81 2.951,-92.991 4.58,-97.764C4.804,-98.418 5.013,-98.334 5.408,-98.494C5.803,-98.653 6.163,-98.403 6.381,-98.138C12.836,-90.312 17.695,-82.454 22.392,-73.534C19.421,-72.079 10.594,-69.555 11.266,-65.352C11.938,-61.15 22.239,-70.681 23.255,-71.965C25.385,-68.612 27.354,-64.996 29.463,-61.842C26.384,-57.446 14.794,-57.882 15.8,-50.326C16.591,-44.39 30.13,-57.764 30.058,-60.94C31.795,-58.501 33.168,-56.425 34.755,-54.089C33.461,-53.292 31.356,-50.225 33.118,-49.141C34.879,-48.057 36.169,-49.405 37.703,-50.207C39.658,-47.488 41.694,-45.016 43.511,-42.037C40.661,-41.126 29.897,-30.523 33.025,-28.444C40.501,-23.474 40.86,-36.036 45.537,-39.521C48.242,-35.719 50.99,-31.764 52.936,-27.438C49.894,-26.794 37.172,-23.914 37.904,-20.22C39.247,-13.435 50.813,-24.657 53.486,-26.369C55.384,-22.499 56.681,-18.506 57.351,-14.251C55.431,-13.62 44.472,-12.879 48.782,-9.27C50.158,-8.118 56.177,-11.56 57.46,-12.988C57.898,-7.581 57.017,-1.396 54.283,3.047C48.238,12.872 39.503,15.783 28.841,15.112C26.603,14.971 26.14,14.452 24.287,13.804C25.837,13.699 41.17,5.67 36.9,4.075C30.382,1.641 24.771,8.826 20.334,12.567C16.813,11.011 14.176,9.193 11.526,6.325C13.068,5.963 31.549,-5.803 26.335,-6.492C19.625,-7.376 13.695,-0.436 8.772,3.429C6.463,0.887 5.092,-1.946 3.375,-5.085C8.391,-5.467 19.512,-12.429 12.179,-15.85C4.847,-19.271 0.721,-13.933 -5.706,-13.025C-6.671,-15.703 -7.303,-18.695 -7.927,-21.599C-0.152,-23.046 17.25,-19.507 18.813,-29.576C14.389,-42.187 1.021,-27.442 -8.701,-24.942C-9.485,-28.831 -10.113,-32.623 -10.362,-36.677C-7.569,-35.141 -0.035,-35.87 1.357,-37.448C9.07,-46.189 -1.397,-46.339 -7.67,-47.1C-7.587,-50.028 -7.175,-52.816 -6.708,-55.801C-5.078,-55.559 9.972,-60.757 4.692,-63.607C1.672,-65.238 -3.719,-58.065 -6.431,-57.549C-5.1,-65.092 -2.84,-72.585 -0.77,-80.03C-0.467,-79.125 0.556,-77.4 1.477,-77.364C3.839,-77.27 4.64,-79.754 3.719,-81.557C3.157,-82.658 0.997,-82.534 0,-82.87" style="fill:rgb(82,153,255);fill-opacity:0.65;"/>
                                </g>
                                <g transform="matrix(1,0,0,1,-143.523,-925.875)">
                                    <path d="M227.986,1026.16C227.986,1026.16 232.376,1037.6 241.154,1051.78C245.716,1059.16 251.462,1067.27 258.389,1074.91C263.677,1080.74 266.336,1089.2 267.58,1099.12C269.863,1117.3 267.367,1140.33 267.239,1161.07C267.239,1161.62 267.687,1162.07 268.239,1162.07C268.791,1162.07 269.239,1161.62 269.239,1161.07C269.111,1140.28 271.317,1117.16 268.803,1098.95C267.404,1088.82 264.544,1080.2 259.056,1074.3C252.067,1066.78 246.251,1058.77 241.62,1051.49C232.688,1037.44 228.166,1026.09 228.166,1026.09C228.147,1026.04 228.09,1026.01 228.041,1026.03C227.991,1026.05 227.966,1026.11 227.986,1026.16Z" style="fill:rgb(51,135,255);"/>
                                </g>
                                <g transform="matrix(1,0,0,1,-8.25962,-921.615)">
                                    <path d="M126.343,1075.48C125.442,1073.6 124.386,1071.97 123.157,1070.62C116.225,1062.99 110.475,1054.88 105.909,1047.51C97.121,1033.33 92.722,1021.9 92.722,1021.9C92.702,1021.85 92.727,1021.79 92.777,1021.77C92.827,1021.75 92.883,1021.78 92.902,1021.83C92.902,1021.83 97.416,1033.19 106.338,1047.24C110.964,1054.53 116.776,1062.54 123.761,1070.06C125.01,1071.41 126.094,1073.03 127.03,1074.89C126.803,1075.09 126.574,1075.29 126.343,1075.48Z" style="fill:white;"/>
                                </g>
                            </g>
                            <g transform="matrix(1,0,0,1,9.23225,0)">
                                <g transform="matrix(1,0,0,1,108.915,146.221)">
                                    <path d="M0,-76.982C0.857,-81.337 2.617,-85.543 4.297,-89.539C4.527,-90.086 4.68,-90.008 5.025,-90.123C5.37,-90.238 5.637,-90.083 5.831,-89.815C11.563,-81.918 17.424,-74.05 22.232,-65.572C19.646,-65.026 10.811,-64.278 11.588,-60.304C12.366,-56.331 21.544,-62.582 23.203,-63.753C25.442,-59.514 27.338,-54.952 28.872,-50.603C25.213,-47.917 14.995,-52.611 14.174,-45.571C13.528,-40.041 27.878,-45.992 29.288,-49.351C30.378,-46.074 31.074,-43.254 31.756,-40.051C30.084,-39.814 27.667,-37.88 28.606,-36.1C29.545,-34.319 31.143,-34.56 32.898,-34.394C33.391,-31.018 33.881,-27.754 33.853,-24.234C31.451,-24.932 17.625,-23.297 18.864,-20.143C21.828,-12.604 28.883,-21.177 34.209,-21.27C34.375,-16.873 34.187,-12.491 32.979,-8.186C30.305,-9.797 19.501,-14.896 17.585,-12.107C14.067,-6.983 30.229,-7.488 32.729,-7.078C31.63,-3.147 30.079,0.294 27.428,3.422C25.846,2.581 17.488,-4.093 17.882,0.97C18.007,2.585 24.824,4.399 26.58,4.279C22.763,8.383 16.878,11.336 11.625,11.935C0.01,13.256 -10.668,10.483 -17.263,1.324C-18.646,-0.599 -18.036,-0.594 -18.719,-2.405C-17.865,-1.215 -2.285,4.283 -4.055,0.785C-6.757,-4.555 -14.612,-4.484 -19.763,-5.623C-20.395,-8.698 -20.417,-11.309 -19.635,-14.444C-18.551,-13.364 0.861,-7.4 -1.745,-10.989C-5.098,-15.608 -13.729,-16.159 -19.013,-17.52C-18.451,-20.189 -17.206,-22.417 -16.103,-25.084C-14.746,-22.875 -1.113,-17.44 -3.103,-22.991C-5.092,-28.544 -11.27,-26.278 -14.907,-28.624C-14.161,-30.719 -12.901,-32.865 -11.918,-34.993C-6.014,-32.288 3.189,-22.628 9.079,-28.236C11.685,-38.699 -3.954,-34.997 -10.835,-37.48C-9.545,-40.399 -8.406,-43.363 -7.196,-46.361C-6.309,-44.391 -1.148,-40.897 0.285,-41.456C8.224,-44.555 -3.064,-48.576 -6.103,-49.877C-5.495,-51.99 -4.675,-53.981 -4.049,-56.151C-2.588,-55.531 10.238,-56.877 5.759,-60.031C3.197,-61.835 -1.16,-57.149 -3.716,-57.373C-2.337,-62.924 -1.396,-68.729 -0.418,-74.422C-0.102,-73.574 0.826,-72.037 1.718,-71.97C4.006,-71.798 3.781,-74.267 2.985,-75.705C2.499,-76.584 0.858,-76.689 0,-76.982" style="fill:rgb(82,153,255);fill-opacity:0.3;"/>
                                </g>
                                <g transform="matrix(1,0,0,1,-109.597,-922.069)">
                                    <path d="M227.722,1017.33C227.722,1017.33 233.113,1023.31 229.784,1048.58C228.298,1059.85 225.075,1074.96 218.863,1095.08C217.568,1099.28 217.043,1103.12 216.932,1107.51C216.681,1117.51 218.612,1130.43 218.442,1157.25C218.442,1157.81 218.89,1158.25 219.442,1158.25C219.994,1158.25 220.442,1157.81 220.442,1157.25C220.271,1130.43 218.175,1117.54 218.299,1107.54C218.352,1103.26 218.814,1099.52 220.021,1095.43C225.994,1075.17 229.033,1059.98 230.379,1048.65C233.409,1023.15 227.865,1017.2 227.865,1017.2C227.829,1017.16 227.768,1017.16 227.728,1017.19C227.689,1017.23 227.686,1017.29 227.722,1017.33Z" style="fill:rgb(51,135,255);"/>
                                </g>
                                <g transform="matrix(1,0,0,1,-8.25962,-921.615)">
                                    <path d="M121.804,1080.05C125.322,1066.97 127.373,1056.49 128.47,1048.13C131.78,1022.86 126.384,1016.88 126.384,1016.88C126.348,1016.84 126.351,1016.77 126.39,1016.74C126.43,1016.7 126.491,1016.71 126.527,1016.75C126.527,1016.75 132.066,1022.7 129.018,1048.19C128.019,1056.55 126.095,1067.02 122.747,1080.07C122.431,1080.07 122.117,1080.06 121.804,1080.05Z" style="fill:white;"/>
                                </g>
                            </g>
                            <g>
                                <g transform="matrix(1,0,0,1,-16.3303,-924.069)">
                                    <path d="M74.012,1032.57C74.012,1032.57 93.072,1037.16 112.056,1057.89C120.678,1067.31 129.281,1080.06 136.079,1097.2C141.18,1110.07 143.311,1118.77 144.08,1127.43C144.879,1136.43 144.216,1145.4 143.899,1158.94C143.888,1159.5 144.327,1159.95 144.879,1159.96C145.43,1159.98 145.888,1159.54 145.899,1158.98C146.137,1145.35 146.743,1136.32 145.886,1127.26C145.053,1118.47 142.849,1109.64 137.589,1096.6C130.61,1079.29 121.829,1066.45 113.05,1056.98C93.654,1036.05 74.26,1031.52 74.26,1031.52C73.971,1031.45 73.681,1031.63 73.612,1031.92C73.543,1032.21 73.722,1032.5 74.012,1032.57Z" style="fill:rgb(51,135,255);"/>
                                </g>
                                <g transform="matrix(1,0,0,1,70.2868,100.292)">
                                    <path d="M0,54.454C-0.09,54.493 -0.136,54.546 -0.154,54.628C-0.172,54.71 -0.146,54.79 -0.086,54.843C3.352,57.869 6.988,60.354 11.13,62.305C11.519,62.487 11.976,62.339 12.275,62.224C12.574,62.109 12.959,61.356 12.919,61.226C11.705,57.294 13.805,36.138 19.423,39.857C30.339,47.083 25.192,55.935 20.059,64.686C19.882,64.987 19.782,65.324 19.955,65.598C20.127,65.871 20.354,66.119 20.697,66.081C41.845,63.778 48.067,50.046 48.838,30.347C48.858,29.825 48.554,29.632 48.229,29.395C47.903,29.16 47.406,29.293 47.151,29.508C44.153,32.028 41.008,40.051 36.338,35.433C32.872,32.005 40.198,27.263 43.706,26.249C43.924,26.185 44.458,25.654 44.515,25.263C44.572,24.872 44.631,24.398 44.349,23.969C41.148,19.1 37.305,14.673 33.322,10.425C32.994,10.074 32.609,9.998 32.195,10.016C31.781,10.035 31.402,10.433 31.273,10.778C29.872,14.532 27.46,23.936 22.102,22.395C12.463,19.622 23.157,10.543 27.324,6.889C27.517,6.72 27.89,6.022 27.8,5.6C27.71,5.178 27.543,4.677 27.134,4.389C24.345,2.424 21.455,0.612 18.463,-1.04C17.878,-1.363 17.229,-1.333 16.667,-0.933C16.104,-0.533 15.916,0.038 15.989,0.792C16.534,6.402 16.113,12.441 8.455,11.266C0.797,10.092 3.785,0.722 6.822,-4.462C6.967,-4.711 6.968,-5.171 6.848,-5.456C6.729,-5.741 6.466,-6.017 6.15,-6.128C1.675,-7.692 -2.835,-9.022 -7.451,-10.089C-7.574,-10.117 -7.677,-10.068 -7.736,-9.954C-7.795,-9.841 -7.766,-9.748 -7.668,-9.64C-6.356,-8.194 -4.321,-6.815 -3.861,-4.759C-2.956,-0.708 -3.893,2.581 -9.009,2.847C-17.046,3.264 -13.145,-5.385 -10.222,-9.947C-10.12,-10.107 -10.164,-10.279 -10.226,-10.425C-10.289,-10.571 -10.455,-10.678 -10.614,-10.705C-14.481,-11.352 -18.328,-11.63 -22.243,-11.663C-22.415,-11.665 -22.534,-11.549 -22.611,-11.44C-22.689,-11.331 -22.629,-11.068 -22.561,-11.025C-21.461,-10.32 -20.799,-7.763 -21.386,-7.05C-22.81,-5.318 -24.818,-4.486 -26.581,-5.748C-27.561,-6.45 -25.564,-9.812 -25.21,-10.79C-25.172,-10.896 -25.228,-11.281 -25.374,-11.409C-25.519,-11.537 -25.794,-11.662 -25.979,-11.647C-30.321,-11.301 -34.832,-10.904 -39.057,-10.516C-39.684,-10.458 -39.754,-10.351 -39.956,-9.919C-40.157,-9.487 -40.291,-9.463 -39.946,-8.81C-37.203,-3.619 -33.844,1.639 -30.662,6.737C-30.579,6.871 -30.322,7.065 -30.134,7.025C-29.948,6.985 -29.653,6.983 -29.533,6.767C-26.863,1.946 -21.163,0.513 -18.545,4.399C-13.944,11.229 -19.18,12.232 -22.381,10.728C-25.583,9.225 -24.019,10.17 -26.144,9.268C-26.454,9.137 -26.418,9.292 -26.618,9.397C-26.817,9.504 -26.804,9.717 -26.736,9.902C-25.637,12.917 -24.411,15.911 -23.169,18.882C-23.106,19.032 -22.943,19.142 -22.806,19.181C-22.668,19.22 -22.418,19.166 -22.321,19.068C-18.313,15.067 -11.633,11.402 -9.013,17.933C-5.689,26.216 -12.643,27.755 -19.224,27.918C-19.579,27.927 -19.727,28.03 -19.873,28.25C-20.019,28.47 -20.014,28.723 -19.89,28.938C-17.45,33.218 -14.811,37.335 -11.951,41.344C-11.848,41.488 -11.656,41.551 -11.507,41.549C-11.358,41.547 -11.107,41.385 -11.078,41.309C-9.253,36.457 -0.062,21.821 1.349,33.021C2.268,40.311 -3.037,42.66 -7.428,46.286C-7.667,46.483 -7.653,46.38 -7.696,46.559C-7.739,46.739 -7.691,46.818 -7.612,46.914C-5.824,49.063 -3.937,51.078 -1.974,53.056C-1.874,53.156 -1.739,53.19 -1.606,53.159C-1.474,53.127 -1.357,53.043 -1.31,52.902C-0.996,51.981 -0.135,50.999 0.713,51.808C1.996,53.033 1.359,53.869 0,54.454" style="fill:rgb(82,153,255);"/>
                                </g>
                                <g transform="matrix(1,0,0,1,-8.25962,-921.615)">
                                    <path d="M120.017,1077.91C118.422,1075.22 116.793,1072.67 115.143,1070.26C92.527,1037.22 66.014,1029.78 66.014,1029.78C65.911,1029.75 65.85,1029.64 65.878,1029.54C65.906,1029.43 66.013,1029.37 66.116,1029.4C66.116,1029.4 92.981,1036.47 116.349,1069.42C117.937,1071.66 119.508,1074.02 121.054,1076.5C120.723,1076.98 120.378,1077.45 120.017,1077.91Z" style="fill:white;"/>
                                </g>
                            </g>
                        </g>
                    </g>
                </g>
                <g transform="matrix(1,0,0,1,-321.921,120.285)">
                    <g transform="matrix(0.517828,0,0,0.573063,195.069,437.429)">
                        <path d="M501.12,1024.58L404.563,1024.58C404.563,1024.58 412.093,1133.45 413.853,1158.9C414.059,1161.87 416.779,1164.18 420.067,1164.18C434.421,1164.18 471.262,1164.18 485.616,1164.18C488.903,1164.18 491.624,1161.87 491.829,1158.9C493.589,1133.45 501.12,1024.58 501.12,1024.58Z" style="fill:rgb(220,234,255);"/>
                    </g>
                    <path d="M454.099,1032L410,1032L453.599,1040L454.099,1032Z" style="fill:rgb(128,181,255);fill-opacity:0.1;"/>
                    <g transform="matrix(0.517828,0,0,0.573063,195.069,437.429)">
                        <path d="M506.843,1025.59C506.861,1025.33 506.759,1025.07 506.56,1024.88C506.361,1024.68 506.083,1024.58 505.792,1024.58C495.057,1024.58 410.625,1024.58 399.89,1024.58C399.6,1024.58 399.322,1024.68 399.123,1024.88C398.924,1025.07 398.821,1025.33 398.839,1025.59C399.007,1028.01 399.431,1034.14 399.597,1036.54C399.635,1037.1 400.144,1037.53 400.759,1037.53C411.283,1037.53 494.399,1037.53 504.923,1037.53C505.538,1037.53 506.047,1037.1 506.085,1036.54C506.251,1034.14 506.675,1028.01 506.843,1025.59Z" style="fill:rgb(128,181,255);fill-opacity:0.8;"/>
                    </g>
                </g>
            </g>
        </g>
    </g>
</svg>
