<?xml version="1.0" encoding="UTF-8" standalone="no"?>
<!DOCTYPE svg PUBLIC "-//W3C//DTD SVG 1.1//EN" "http://www.w3.org/Graphics/SVG/1.1/DTD/svg11.dtd">
<svg width="100%" height="100%" viewBox="0 0 230 209" version="1.1" xmlns="http://www.w3.org/2000/svg" xmlns:xlink="http://www.w3.org/1999/xlink" xml:space="preserve" xmlns:serif="http://www.serif.com/" style="fill-rule:evenodd;clip-rule:evenodd;stroke-linejoin:round;stroke-miterlimit:2;">
    <g transform="matrix(1,0,0,1,-4127.58,-1796.41)">
        <g transform="matrix(1,0,0,1.02857,2807.58,-116.242)">
            <g id="丝兰" transform="matrix(1,0,0,0.972222,785,670.625)">
                <g transform="matrix(1,0,0,1,215,113.572)">
                    <g transform="matrix(1,0,0,0.91264,0,110.772)">
                        <path d="M480,1268L390,1268L400,1322.79L470,1322.79L480,1268Z" style="fill:rgb(204,225,255);"/>
                    </g>
                    <path d="M472.8,1304L397.2,1304L396.4,1300L473.6,1300L472.8,1304ZM474.2,1297L395.8,1297L393,1283L477,1283L474.2,1297ZM477.6,1280L392.4,1280L391.6,1276L478.4,1276L477.6,1280Z" style="fill:rgb(102,165,255);fill-opacity:0.2;"/>
                </g>
                <g transform="matrix(1,0,0,1,110,46.5)">
                    <g transform="matrix(0.437726,-0.00862454,0.0105196,0.791274,238.13,248.441)">
                        <path d="M670,1180C670,1180 635.074,1269.49 660,1380C693.683,1281.43 670,1180 670,1180Z" style="fill:rgb(109,169,255);fill-opacity:0.8;"/>
                    </g>
                    <g transform="matrix(0.134639,0.592708,-0.645543,0.217329,1339.91,642.129)">
                        <path d="M666.77,1200.05C666.77,1200.05 654.609,1287.21 660,1380C697.664,1325.12 666.77,1200.05 666.77,1200.05Z" style="fill:rgb(109,169,255);fill-opacity:0.8;"/>
                    </g>
                    <g transform="matrix(-0.134639,0.592708,0.645543,0.217329,-261.988,642.129)">
                        <path d="M657.837,1201.4C657.837,1201.4 654.609,1287.21 660,1380C697.664,1325.12 657.837,1201.4 657.837,1201.4Z" style="fill:rgb(109,169,255);fill-opacity:0.8;"/>
                    </g>
                    <g transform="matrix(-0.241427,0.540171,0.482872,0.319851,30.9002,536.707)">
                        <path d="M670,1180C670,1180 654.609,1287.21 660,1380C697.664,1325.12 670,1180 670,1180Z" style="fill:rgb(109,169,255);fill-opacity:0.6;"/>
                    </g>
                    <g transform="matrix(-0.304994,0.490211,0.438212,0.404067,140.839,453.556)">
                        <path d="M670,1180C670,1180 654.609,1287.21 660,1380C697.664,1325.12 670,1180 670,1180Z" style="fill:rgb(109,169,255);fill-opacity:0.8;"/>
                    </g>
                    <g transform="matrix(0.304994,0.490211,-0.438212,0.404067,942.645,453.556)">
                        <path d="M670,1180C670,1180 654.609,1287.21 660,1380C697.664,1325.12 670,1180 670,1180Z" style="fill:rgb(109,169,255);fill-opacity:0.8;"/>
                    </g>
                    <g transform="matrix(-0.39607,0.381679,0.341192,0.524726,328.051,358.676)">
                        <path d="M670,1180C670,1180 648.957,1295.15 660,1380C697.664,1325.12 670,1180 670,1180Z" style="fill:rgb(109,169,255);fill-opacity:0.4;"/>
                    </g>
                    <g transform="matrix(-0.39607,0.381679,0.341192,0.524726,328.051,358.676)">
                        <path d="M636.997,1199.35C636.997,1199.35 648.957,1295.15 660,1380C673.59,1307.87 636.997,1199.35 636.997,1199.35Z" style="fill:rgb(109,169,255);fill-opacity:0.6;"/>
                    </g>
                    <g transform="matrix(-0.39607,0.381679,0.341192,0.524726,328.051,358.676)">
                        <path d="M584.007,1211.21C584.007,1211.21 617.848,1316.53 660,1380C630.784,1293.32 584.007,1211.21 584.007,1211.21Z" style="fill:rgb(109,169,255);fill-opacity:0.8;"/>
                    </g>
                    <g transform="matrix(0.39607,0.381679,-0.341192,0.524726,749.439,358.104)">
                        <path d="M603.382,1205.83C603.382,1205.83 617.848,1316.53 660,1380C630.784,1293.32 603.382,1205.83 603.382,1205.83Z" style="fill:rgb(109,169,255);fill-opacity:0.6;"/>
                    </g>
                    <g transform="matrix(0.19412,0.567733,-0.507511,0.257177,1109.78,605.526)">
                        <path d="M636.997,1199.35C636.997,1199.35 648.957,1295.15 660,1380C673.59,1307.87 636.997,1199.35 636.997,1199.35Z" style="fill:rgb(109,169,255);fill-opacity:0.6;"/>
                    </g>
                    <g transform="matrix(0.39607,0.381679,-0.341192,0.524726,747.361,358.676)">
                        <path d="M670,1180C670,1180 648.957,1295.15 660,1380C697.664,1325.12 670,1180 670,1180Z" style="fill:rgb(109,169,255);fill-opacity:0.4;"/>
                    </g>
                    <g transform="matrix(0.241427,0.540171,-0.482872,0.319851,1046.6,536.707)">
                        <path d="M670,1180C670,1180 654.609,1287.21 660,1380C697.664,1325.12 670,1180 670,1180Z" style="fill:rgb(109,169,255);fill-opacity:0.8;"/>
                    </g>
                    <g transform="matrix(0.592289,0.148423,-0.121919,0.721048,315.138,241.702)">
                        <path d="M670,1180C670,1180 635.074,1269.49 660,1380C693.683,1281.43 670,1180 670,1180Z" style="fill:rgb(109,169,255);fill-opacity:0.4;"/>
                    </g>
                    <g transform="matrix(0.585378,-0.184638,0.151667,0.712635,-54.71,473.132)">
                        <path d="M670,1180C670,1180 635.074,1269.49 660,1380C693.683,1281.43 670,1180 670,1180Z" style="fill:rgb(109,169,255);fill-opacity:0.8;"/>
                    </g>
                    <g transform="matrix(0.407362,0.238581,-0.209897,0.531142,558.182,444.268)">
                        <path d="M670,1180C670,1180 635.074,1269.49 660,1380C693.683,1281.43 670,1180 670,1180Z" style="fill:rgb(109,169,255);fill-opacity:0.8;"/>
                    </g>
                    <g transform="matrix(0.493888,-0.2853,0.234353,0.601255,-110.879,693.272)">
                        <path d="M670,1180C670,1180 635.074,1269.49 660,1380C693.683,1281.43 670,1180 670,1180Z" style="fill:rgb(109,169,255);fill-opacity:0.8;"/>
                    </g>
                    <g transform="matrix(0.821429,0,0,1,-13.0523,-45.8608)">
                        <path d="M732.933,1384.25C732.933,1384.25 691.813,1388.35 671,1380.38C711.435,1380.28 732.933,1384.25 732.933,1384.25Z" style="fill:rgb(109,169,255);fill-opacity:0.8;"/>
                    </g>
                    <g transform="matrix(0.821429,0,0,1,-8.34013,-45.9952)">
                        <path d="M740.238,1376C740.238,1376 691.813,1388.35 671,1380.38C711.435,1380.28 740.238,1376 740.238,1376Z" style="fill:rgb(109,169,255);fill-opacity:0.6;"/>
                    </g>
                    <g transform="matrix(0.95785,0,0,0.881233,-97.3052,117.148)">
                        <path d="M611.061,1384.75C611.061,1384.75 636.092,1379.95 667.5,1381.5C659.635,1393.06 611.061,1384.75 611.061,1384.75Z" style="fill:rgb(109,169,255);fill-opacity:0.6;"/>
                    </g>
                    <g transform="matrix(1.21101,0,0,0.881233,-270.999,117.283)">
                        <path d="M608.997,1372.34C608.997,1372.34 636.092,1377.52 667.5,1381.5C649.167,1390.63 608.997,1372.34 608.997,1372.34Z" style="fill:rgb(109,169,255);fill-opacity:0.6;"/>
                    </g>
                    <g transform="matrix(1.21101,0,0,0.881233,-266.045,117.148)">
                        <path d="M667.322,1391.63C667.322,1391.63 643.676,1374.21 667.5,1381.5C692.082,1374.31 667.322,1391.63 667.322,1391.63Z" style="fill:rgb(109,169,255);fill-opacity:0.8;"/>
                    </g>
                </g>
            </g>
        </g>
    </g>
</svg>
