<?xml version="1.0" encoding="UTF-8" standalone="no"?>
<!DOCTYPE svg PUBLIC "-//W3C//DTD SVG 1.1//EN" "http://www.w3.org/Graphics/SVG/1.1/DTD/svg11.dtd">
<svg width="100%" height="100%" viewBox="0 0 306 339" version="1.1" xmlns="http://www.w3.org/2000/svg" xmlns:xlink="http://www.w3.org/1999/xlink" xml:space="preserve" xmlns:serif="http://www.serif.com/" style="fill-rule:evenodd;clip-rule:evenodd;stroke-linejoin:round;stroke-miterlimit:2;">
    <g transform="matrix(1,0,0,1,-3214.78,-2543.27)">
        <g transform="matrix(1,0,0,1.02857,2807.58,-116.242)">
            <g transform="matrix(1,0,0,0.972222,-1737.2,1543.53)">
                <g transform="matrix(0.759235,0,0,0.759235,479.385,387.982)">
                    <g opacity="0.7">
                        <path d="M2478.88,1052.1C2473.72,1058.28 2465.46,1067.01 2460.41,1073.93C2460.13,1074.32 2459.69,1074.58 2459.2,1074.61C2458.72,1074.65 2458.24,1074.47 2457.9,1074.12C2449.16,1064.5 2449,1048.5 2449,1048.5C2449,1048.5 2447.66,1069.85 2449.88,1090.93C2450.07,1092.65 2449.7,1094.39 2448.84,1095.89C2426.53,1134.77 2416.54,1170.94 2416.54,1170.94C2416.54,1170.94 2415.39,1073.34 2434.15,1004.35C2451.21,941.613 2486.75,906.112 2484.71,918.811C2478.3,958.804 2515.11,969.595 2507.15,1004.86C2507.07,1005.22 2506.72,1005.47 2506.36,1005.42C2502.72,1005.01 2485,1003 2485,1003C2485,1003 2500.64,1006.65 2505.3,1007.74C2505.63,1007.82 2505.91,1008.03 2506.07,1008.33C2506.23,1008.62 2506.26,1008.98 2506.15,1009.3C2502.11,1020.48 2493.81,1034.2 2479.08,1051.86L2478.88,1052.1Z" style="fill:rgb(102,164,255);fill-opacity:0.8;"/>
                        <path d="M2505.51,1007.92C2505.73,1007.97 2505.91,1008.11 2506.02,1008.3C2506.12,1008.5 2506.14,1008.73 2506.06,1008.94C2501.83,1020.42 2493.35,1034.14 2478.88,1052.1C2473.92,1058.04 2469.24,1064.24 2464.83,1070.56C2464.49,1071.06 2463.91,1071.34 2463.31,1071.3C2462.71,1071.27 2462.17,1070.92 2461.88,1070.39C2454.76,1057.18 2451,1048 2451,1048C2451,1048 2447.94,1068.94 2449.77,1089.64C2450.02,1092.2 2449.47,1094.78 2448.19,1097.01C2426.31,1135.46 2416.54,1170.94 2416.54,1170.94C2416.54,1170.94 2415.39,1073.34 2434.15,1004.35C2445.54,962.462 2458.6,944.608 2470,928.708C2485.36,962.17 2514.14,974.927 2508.38,1001.65C2508.21,1002.43 2507.52,1002.98 2506.73,1002.98C2501.8,1003 2485,1003 2485,1003C2485,1003 2501.55,1006.97 2505.51,1007.92Z" style="fill:rgb(194,219,255);fill-opacity:0.8;"/>
                        <g transform="matrix(0.963631,0.267238,-0.267238,0.963631,408.667,-613.375)">
                            <path d="M2410.15,921.646C2409.89,919.207 2408.81,918.696 2407.26,919.827C2403.63,922.468 2397.02,935.046 2391.72,954.501C2387.19,971.146 2383.61,992.827 2383.66,1017.61C2383.71,1043 2390.65,1084.87 2399.59,1128.34C2415.84,1207.34 2438.7,1291.61 2438.7,1291.61C2438.89,1292.31 2439.61,1292.73 2440.32,1292.53C2441.02,1292.34 2441.43,1291.62 2441.24,1290.91C2441.24,1290.91 2417.89,1206.85 2401.18,1128.01C2391.99,1084.68 2384.81,1042.94 2384.61,1017.61C2384.41,992.901 2387.85,971.267 2392.27,954.647C2397.41,935.291 2403.87,922.741 2407.45,920.096C2408.75,919.139 2409.61,919.635 2409.85,921.68C2409.86,921.765 2409.93,921.826 2410.02,921.816C2410.1,921.807 2410.16,921.73 2410.15,921.646Z" style="fill:rgb(51,135,255);"/>
                        </g>
                    </g>
                </g>
                <g transform="matrix(0.3689,0,0,0.3689,1465.92,865.671)">
                    <g opacity="0.8">
                        <path d="M2262.63,1410.66C2262.63,1410.66 2295.3,1279.6 2287.26,1160.11C2283.11,1098.44 2268.09,1039.87 2232.35,1003.77C2205.91,977.056 2168.14,962.551 2114.96,968.24C2051.22,975.058 1965.18,1010.96 1849.83,1089.75C1849.69,1089.85 1849.66,1090.03 1849.75,1090.17C1849.85,1090.31 1850.03,1090.34 1850.17,1090.25C1965.64,1012.35 2051.6,976.948 2115.2,970.514C2167.4,965.233 2204.42,979.526 2230.21,1005.88C2265.23,1041.67 2279.55,1099.55 2283.29,1160.36C2290.61,1279.22 2257.37,1409.34 2257.37,1409.34C2257.01,1410.79 2257.89,1412.26 2259.34,1412.63C2260.79,1412.99 2262.26,1412.11 2262.63,1410.66Z" style="fill:rgb(51,135,255);"/>
                        <path d="M1850,1090C1846.11,1092.67 1836.33,1090.88 1840,1080L1860,1020L1880,991.341L1909.47,1020L1915.28,1014.92L1892.41,975.539L1909.47,958.038L1928.41,1004.38L1934.38,999.802L1915.28,950.679L1970.1,903.806L1991.74,968.392L1991.74,946.108L1980.74,898.626C1980.74,898.626 2109.05,827.183 2181.9,862.007L2181.9,903.806L2194.48,868.864C2194.48,868.864 2279.81,885.345 2302.08,933.252L2287.84,950.679L2309.85,946.108C2309.85,946.108 2336.07,983.357 2329.27,1032.24C2329.27,1032.24 2311.04,1045.64 2309.85,1048.32C2308.66,1051 2322.87,1044.3 2322.12,1048.32C2320.82,1055.27 2309.71,1081.95 2302.08,1090C2295.98,1096.43 2276.32,1096.61 2276.32,1096.61L2257.41,1040.33C2245.55,1036.46 2197.74,851.237 1850,1090Z" style="fill:rgb(82,153,255);fill-opacity:0.4;"/>
                    </g>
                </g>
                <g transform="matrix(-0.307826,0,0,0.307826,3016.15,955.966)">
                    <g opacity="0.8">
                        <path d="M2256.85,1409.2C2256.85,1409.2 2290.14,1279.18 2282.9,1160.38C2279.2,1099.66 2264.95,1041.85 2230,1006.09C2204.27,979.771 2167.33,965.498 2115.22,970.739C2051.64,977.135 1965.69,1012.48 1850.2,1090.3C1850.04,1090.41 1849.81,1090.37 1849.7,1090.2C1849.59,1090.04 1849.63,1089.81 1849.8,1089.7C1965.14,1010.83 2051.18,974.871 2114.94,968.014C2168.22,962.284 2206.06,976.812 2232.57,1003.56C2268.38,1039.69 2283.46,1098.33 2287.65,1160.08C2295.77,1279.64 2263.15,1410.8 2263.15,1410.8C2262.71,1412.53 2260.94,1413.59 2259.2,1413.15C2257.47,1412.71 2256.41,1410.94 2256.85,1409.2Z" style="fill:rgb(51,135,255);"/>
                        <path d="M1850,1090C1846.11,1092.67 1836.33,1090.88 1840,1080L1860,1020L1880,991.341L1909.47,1020L1915.28,1014.92L1892.41,975.539L1909.47,958.038L1928.41,1004.38L1934.38,999.802L1915.28,950.679L1970.1,903.806L1991.74,968.392L1991.74,946.108L1980.74,898.626C1980.74,898.626 2109.05,827.183 2181.9,862.007L2181.9,903.806L2194.48,868.864C2194.48,868.864 2279.81,885.345 2302.08,933.252L2287.84,950.679L2309.85,946.108C2309.85,946.108 2336.07,983.357 2329.27,1032.24C2329.27,1032.24 2311.04,1045.64 2309.85,1048.32C2308.66,1051 2322.87,1044.3 2322.12,1048.32C2320.82,1055.27 2309.71,1081.95 2302.08,1090C2295.98,1096.43 2276.32,1096.61 2276.32,1096.61L2257.41,1040.33C2245.55,1036.46 2197.74,851.237 1850,1090Z" style="fill:rgb(82,153,255);fill-opacity:0.4;"/>
                    </g>
                </g>
                <g transform="matrix(0.369023,0,0,0.369023,1508.22,785.498)">
                    <g opacity="0.9">
                        <g transform="matrix(1,0,0,1,-75.1432,-232.021)">
                            <path d="M2040.71,1027.54C2037.84,1025.94 2037.25,1019.26 2040.14,1017.7C2045.88,1014.6 2068.58,1005.18 2075.14,1008.97C2079.91,1011.72 2085.39,1016.36 2094.14,1020.97C2100.67,1024.39 2105.16,1025.2 2113.14,1029.7C2119.07,1033.04 2130.27,1039.32 2135.14,1045.7C2140.25,1052.38 2162.4,1064.84 2169.3,1068.9C2175.56,1072.59 2179.99,1077.87 2186.3,1081.01C2193.52,1084.61 2204.5,1092.55 2203.43,1100.86C2202.36,1109.17 2183.8,1124.88 2179.87,1130.86C2178.79,1132.49 2178.01,1137.33 2179.87,1136.73C2185.44,1134.91 2206.39,1116.15 2213.3,1119.97C2218.28,1122.72 2223.54,1128.43 2227.3,1134.9C2235.54,1149.09 2251.36,1170.46 2252.14,1181.02C2253.6,1200.6 2203.44,1230.2 2188.14,1236.02C2161.33,1246.23 2160.49,1219.44 2151.3,1195.86C2148.71,1189.22 2098.75,1059.77 2040.71,1027.54Z" style="fill:rgb(82,153,255);fill-opacity:0.8;"/>
                        </g>
                        <g transform="matrix(1,0,0,1,-75.1432,-232.021)">
                            <path d="M2040.71,1027.54L2057.3,1022.9C2073.79,1021.18 2079.74,1019.44 2086.3,1023.22C2091.07,1025.97 2096.54,1030.62 2105.3,1035.22C2111.83,1038.65 2121.31,1042.73 2129.3,1047.22C2135.23,1050.56 2146.42,1056.85 2151.3,1063.22C2156.41,1069.9 2161.4,1077.16 2168.3,1081.22C2174.56,1084.91 2178.99,1090.19 2185.3,1093.34C2192.52,1096.93 2203.5,1104.87 2202.43,1113.18C2201.36,1121.49 2182.8,1137.2 2178.87,1143.18C2177.79,1144.82 2177.01,1149.65 2178.87,1149.05C2184.44,1147.23 2205.39,1128.47 2212.3,1132.29C2217.28,1135.04 2220.34,1142.7 2226.3,1147.22C2230.93,1150.73 2236,1159.05 2236.3,1167.22C2236.56,1174.34 2238.52,1180.99 2241.81,1186.22C2245.96,1192.83 2254.4,1208.6 2248.3,1217.22C2240.05,1228.89 2201.63,1245.92 2192.3,1256.22C2187.2,1261.86 2186.53,1275.88 2192.3,1279.04C2203.6,1285.21 2272.21,1256.63 2285.14,1262.78C2304.49,1274.05 2327.55,1336.19 2325.86,1380.92C2325.36,1392.71 2319.39,1403.6 2309.71,1410.36C2300.28,1416.85 2295.08,1423.73 2284.15,1431.14C2278.84,1434.74 2235.92,1468.42 2229.95,1470.28C2216.91,1474.33 2214.79,1469.08 2214.79,1469.08C2214.79,1469.08 2176.6,1123.79 2040.71,1027.54Z" style="fill:rgb(194,219,255);"/>
                        </g>
                        <g transform="matrix(1,0,0,1,-102.843,-195.799)">
                            <path d="M2068.25,991.769C2068.25,991.769 2166.86,1027.84 2219.73,1297.85C2243.53,1419.38 2258.04,1588.26 2250.13,1822.5C2250.09,1824 2251.26,1825.25 2252.76,1825.3C2254.25,1825.34 2255.51,1824.17 2255.55,1822.67C2262.28,1588.01 2246.88,1418.92 2222.42,1297.31C2167.96,1026.48 2068.57,990.865 2068.57,990.865C2068.32,990.775 2068.05,990.904 2067.96,991.154C2067.87,991.403 2068,991.678 2068.25,991.769Z" style="fill:rgb(51,135,255);"/>
                        </g>
                    </g>
                </g>
                <g transform="matrix(1,0,0,1,-81.6028,-15.4034)">
                    <g transform="matrix(1,0,0,1,0.5,1.59659)">
                        <path d="M2446.2,1256.51C2445.43,1261.71 2434.97,1273.92 2430.5,1300C2419.69,1278.83 2400,1278.72 2400,1278.72C2422.99,1195.82 2465.32,1161.57 2494,1153.39C2494,1153.39 2496.83,1153.78 2498.5,1157C2485.51,1171.14 2458.08,1194.54 2458.5,1205C2443.89,1206.64 2441.5,1209 2441.5,1209C2441.5,1209 2453.94,1208.9 2457.45,1212.56C2453.92,1215.63 2449.48,1237.79 2448.8,1247.5C2436.19,1245.28 2424.5,1250 2424.5,1250C2424.5,1250 2440.88,1249.58 2446.2,1256.51Z" style="fill:rgb(117,173,255);"/>
                    </g>
                    <g transform="matrix(1,0,0,1,0.5,1.59659)">
                        <path d="M2479.13,1200C2478.39,1200.53 2477.93,1205.14 2478,1207C2463.39,1208.64 2461,1211 2461,1211C2461,1211 2473.44,1210.9 2476.95,1214.56C2473.42,1217.63 2468.98,1239.79 2468.3,1249.5C2455.69,1247.28 2444,1252 2444,1252C2444,1252 2460.38,1251.58 2465.7,1258.51C2464.93,1263.71 2454.47,1275.92 2450,1302C2420.7,1278.76 2400,1278.72 2400,1278.72C2422.99,1195.82 2465.32,1161.57 2494,1153.39C2494,1153.39 2499.75,1151.31 2505.5,1155C2495.93,1165.41 2485.32,1183.02 2480.55,1195.75C2480.25,1196.58 2479.57,1197.22 2478.72,1197.47C2475.97,1198.27 2470,1200 2470,1200C2470,1200 2478.3,1198.85 2479.13,1200Z" style="fill:rgb(194,219,255);"/>
                    </g>
                    <path d="M2491.98,1155.69C2491.98,1155.69 2448.34,1168.45 2417.87,1233.63C2401.13,1269.42 2388.37,1321.03 2389,1395.01C2389.01,1395.56 2389.46,1396.01 2390.01,1396C2390.56,1395.99 2391.01,1395.54 2391,1394.99C2389.87,1321.28 2402.24,1269.78 2418.67,1234C2448.6,1168.83 2492.02,1155.82 2492.02,1155.82C2492.06,1155.81 2492.08,1155.77 2492.07,1155.74C2492.06,1155.7 2492.02,1155.68 2491.98,1155.69Z" style="fill:rgb(51,135,255);"/>
                </g>
                <g transform="matrix(0.333333,0,0,0.333333,1646.19,1020)">
                    <g transform="matrix(1,0,0,1.20591,100,-147.378)">
                        <path d="M1961.57,913.712C1960.63,911.488 1958.1,910 1955.26,910C1933.83,910 1846.17,910 1824.74,910C1821.9,910 1819.37,911.488 1818.43,913.712C1814.75,922.405 1805.15,945.088 1795.45,967.986C1779.21,1006.37 1782.74,1048.6 1805.22,1084.75C1805.22,1084.75 1805.22,1084.75 1805.22,1084.75C1808.16,1089.47 1814.02,1092.43 1820.42,1092.43C1849.38,1092.43 1930.62,1092.43 1959.58,1092.43C1965.98,1092.43 1971.84,1089.47 1974.78,1084.75C1974.78,1084.75 1974.78,1084.75 1974.78,1084.75C1997.26,1048.6 2000.79,1006.37 1984.55,967.986C1974.85,945.088 1965.25,922.405 1961.57,913.712Z" style="fill:rgb(204,224,255);"/>
                    </g>
                    <g transform="matrix(1,0,0,1.20591,100,-147.378)">
                        <path d="M1961.62,913.82C1960.65,911.532 1958.04,910 1955.12,910C1933.33,910 1846,910 1846,910C1846,910 1842.18,927.354 1837.47,948.757C1826.45,998.796 1844.08,1050.24 1885.17,1088C1885.17,1088 1885.17,1088 1885.17,1088C1888.25,1090.82 1892.62,1092.43 1897.2,1092.43C1911.41,1092.43 1943.09,1092.43 1959.58,1092.43C1965.98,1092.43 1971.84,1089.47 1974.78,1084.75C1974.78,1084.75 1974.78,1084.75 1974.78,1084.75C1997.26,1048.6 2000.79,1006.37 1984.55,967.986C1974.89,945.182 1965.33,922.592 1961.62,913.82Z" style="fill:url(#_Linear1);"/>
                    </g>
                </g>
            </g>
        </g>
    </g>
    <defs>
        <linearGradient id="_Linear1" x1="0" y1="0" x2="1" y2="0" gradientUnits="userSpaceOnUse" gradientTransform="matrix(140,0,0,116.095,1840,1017.8)"><stop offset="0" style="stop-color:rgb(214,231,255);stop-opacity:1"/><stop offset="1" style="stop-color:rgb(235,243,255);stop-opacity:1"/></linearGradient>
    </defs>
</svg>
