<?xml version="1.0" encoding="UTF-8" standalone="no"?>
<!DOCTYPE svg PUBLIC "-//W3C//DTD SVG 1.1//EN" "http://www.w3.org/Graphics/SVG/1.1/DTD/svg11.dtd">
<svg width="100%" height="100%" viewBox="0 0 62 81" version="1.1" xmlns="http://www.w3.org/2000/svg" xmlns:xlink="http://www.w3.org/1999/xlink" xml:space="preserve" xmlns:serif="http://www.serif.com/" style="fill-rule:evenodd;clip-rule:evenodd;stroke-linejoin:round;stroke-miterlimit:2;">
    <g transform="matrix(1,0,0,1,-3697.58,-1730.57)">
        <g transform="matrix(1,0,0,1.02857,2807.58,-116.242)">
            <g transform="matrix(0.348771,0,0,0.339083,280.24,1415.08)">
                <g transform="matrix(0.46956,0,0,0.483338,944.906,684.726)">
                    <path d="M1924.58,1265.1C1917.85,1279.72 1902.91,1289.13 1886.43,1289.13C1874.87,1289.5 1861.89,1289.5 1851.85,1289.5C1842.04,1289.5 1833.77,1282.37 1832.61,1272.91C1825.09,1214.26 1801.33,1017.69 1815.65,969.835C1827.3,930.884 1872.91,902.617 1936.14,950.914C2003.34,1002.24 1948.78,1196.1 1924.58,1265.1Z" style="fill:rgb(163,201,255);"/>
                </g>
                <g transform="matrix(0.619055,0,0,0.619055,695.795,503.074)">
                    <path d="M1794.5,1026.63C1815.13,1015.36 1812.74,1253.45 1804.48,1300.23L1796.92,1300.23C1795.33,1300.23 1793.98,1299.05 1793.78,1297.47C1790.59,1272.9 1767.66,1091.7 1779.59,1050.65C1782.07,1042.13 1788.22,1031.99 1794.5,1026.63Z" style="fill:rgb(82,153,255);fill-opacity:0.2;"/>
                </g>
                <g transform="matrix(0.46956,0,0,0.483338,944.906,684.726)">
                    <path d="M1941.47,1108.99C1941.47,1108.99 2012.86,1123.02 2015.56,1085.63C2018.55,1044.32 2076.65,1013.78 2087.26,1085.63C2087.26,1173.65 1941.47,1138.61 1941.47,1138.61L1941.47,1108.99Z" style="fill:rgb(163,201,255);"/>
                </g>
                <g transform="matrix(-0.46956,0,0,0.483338,2738.41,708.509)">
                    <path d="M1986.59,1111.17C1986.59,1111.17 2021.2,1120.97 2036.45,1093.42C2058.72,1053.21 2113.99,1045.64 2108.15,1093.42C2097.45,1181.07 1986.59,1142.48 1986.59,1142.48L1986.59,1111.17Z" style="fill:rgb(147,191,255);"/>
                </g>
                <g transform="matrix(0.619055,0,0,0.619055,695.795,503.074)">
                    <path d="M1774.15,1228.56C1748.89,1233.07 1706.19,1233.34 1700.52,1185.56C1700.2,1182.82 1700.23,1179.4 1700.27,1178.02C1700.34,1175.36 1702.95,1174.14 1719,1209C1732.46,1238.22 1774.15,1228.56 1774.15,1228.56Z" style="fill:rgb(51,135,255);fill-opacity:0.2;"/>
                </g>
                <g transform="matrix(0.294895,-0.0453233,0.0530206,0.36552,1184.16,891.839)">
                    <path d="M1969.97,888.264C1969.92,887.811 1969.45,887.461 1968.89,887.466C1968.33,887.47 1967.87,887.828 1967.85,888.282C1967.36,898.205 1966.75,910.442 1966.49,915.709C1966.46,916.39 1966.77,917.055 1967.36,917.549C1967.95,918.042 1968.76,918.322 1969.6,918.321C1969.61,918.321 1969.61,918.321 1969.61,918.321C1970.44,918.321 1971.24,918.041 1971.81,917.547C1972.37,917.053 1972.66,916.39 1972.59,915.716C1972.09,910.451 1970.92,898.196 1969.97,888.264Z" style="fill:rgb(51,135,255);"/>
                </g>
                <g transform="matrix(0.294895,-0.0453233,0.0530206,0.36552,1215.52,982.722)">
                    <path d="M1971,899.074C1970.92,898.286 1970.1,897.676 1969.12,897.684C1968.15,897.693 1967.35,898.315 1967.31,899.104C1966.98,905.886 1966.66,912.277 1966.49,915.709C1966.46,916.39 1966.77,917.055 1967.36,917.549C1967.95,918.042 1968.76,918.322 1969.6,918.321C1969.61,918.321 1969.61,918.321 1969.61,918.321C1970.44,918.321 1971.24,918.041 1971.81,917.547C1972.37,917.053 1972.66,916.39 1972.59,915.716C1972.26,912.281 1971.65,905.872 1971,899.074Z" style="fill:rgb(51,135,255);"/>
                </g>
                <g transform="matrix(0.176972,-0.137518,0.168381,0.220509,1301.13,1334.43)">
                    <path d="M1969.65,884.935C1969.62,884.585 1969.25,884.315 1968.82,884.318C1968.38,884.322 1968.03,884.598 1968.01,884.948C1967.5,895.278 1966.79,909.818 1966.5,915.7C1966.46,916.383 1966.78,917.05 1967.37,917.546C1967.95,918.041 1968.77,918.321 1969.61,918.321C1969.62,918.321 1969.63,918.321 1969.63,918.321C1970.46,918.321 1971.25,918.043 1971.81,917.553C1972.38,917.063 1972.66,916.406 1972.59,915.737C1972.03,909.877 1970.64,895.288 1969.65,884.935Z" style="fill:rgb(51,135,255);"/>
                </g>
                <g transform="matrix(0.298148,0.00320399,-0.00374812,0.369552,1243.21,828.06)">
                    <path d="M1971,899.08C1970.93,898.293 1970.1,897.69 1969.12,897.705C1968.14,897.72 1967.35,898.349 1967.31,899.138C1966.98,905.934 1966.66,912.333 1966.49,915.75C1966.46,916.422 1966.77,917.077 1967.35,917.562C1967.92,918.047 1968.72,918.321 1969.56,918.321C1969.56,918.321 1969.56,918.321 1969.56,918.321C1970.4,918.321 1971.21,918.036 1971.79,917.535C1972.36,917.033 1972.65,916.361 1972.59,915.68C1972.26,912.237 1971.65,905.852 1971,899.08Z" style="fill:rgb(51,135,255);"/>
                </g>
                <g transform="matrix(0.198724,0.00213555,-0.00249824,0.246318,1509.99,967.277)">
                    <path d="M1969.72,885.682C1969.68,885.309 1969.29,885.024 1968.83,885.031C1968.37,885.038 1967.99,885.335 1967.97,885.709C1967.47,896.007 1966.77,910.035 1966.49,915.745C1966.46,916.419 1966.77,917.074 1967.35,917.561C1967.92,918.047 1968.73,918.321 1969.56,918.321C1969.57,918.321 1969.58,918.321 1969.58,918.321C1970.42,918.321 1971.23,918.038 1971.8,917.541C1972.37,917.043 1972.65,916.376 1972.59,915.7C1972.04,909.956 1970.7,895.956 1969.72,885.682Z" style="fill:rgb(51,135,255);"/>
                </g>
                <g transform="matrix(0.198724,0.00213555,-0.00249824,0.246318,1387.25,1002.56)">
                    <path d="M1969.68,885.272C1969.65,884.913 1969.27,884.637 1968.82,884.644C1968.38,884.651 1968.01,884.938 1968,885.298C1967.49,895.631 1966.78,909.959 1966.49,915.745C1966.46,916.419 1966.77,917.074 1967.35,917.561C1967.92,918.047 1968.73,918.321 1969.56,918.321C1969.57,918.321 1969.58,918.321 1969.58,918.321C1970.42,918.321 1971.23,918.038 1971.8,917.541C1972.37,917.043 1972.65,916.376 1972.59,915.7C1972.03,909.88 1970.67,895.58 1969.68,885.272Z" style="fill:rgb(51,135,255);"/>
                </g>
                <g transform="matrix(0.198724,0.00213555,-0.00249824,0.246318,1440.25,1054.79)">
                    <path d="M1969.66,885.066C1969.63,884.713 1969.26,884.442 1968.82,884.449C1968.38,884.456 1968.02,884.738 1968.01,885.092C1967.49,895.44 1966.78,909.92 1966.49,915.745C1966.46,916.419 1966.77,917.074 1967.35,917.561C1967.92,918.047 1968.73,918.321 1969.56,918.321C1969.57,918.321 1969.58,918.321 1969.58,918.321C1970.42,918.321 1971.23,918.038 1971.8,917.541C1972.37,917.043 1972.65,916.376 1972.59,915.7C1972.03,909.841 1970.65,895.389 1969.66,885.066Z" style="fill:rgb(51,135,255);"/>
                </g>
                <g transform="matrix(0.198724,0.00213555,-0.00249824,0.246318,1418.67,1073.24)">
                    <path d="M1972.22,911.802C1972.1,910.62 1970.87,909.716 1969.4,909.739C1967.93,909.761 1966.74,910.704 1966.68,911.888C1966.61,913.399 1966.54,914.709 1966.49,915.745C1966.46,916.419 1966.77,917.074 1967.35,917.561C1967.92,918.047 1968.73,918.321 1969.56,918.321C1969.57,918.321 1969.58,918.321 1969.58,918.321C1970.42,918.321 1971.23,918.038 1971.8,917.541C1972.37,917.043 1972.65,916.376 1972.59,915.7C1972.49,914.651 1972.36,913.328 1972.22,911.802Z" style="fill:rgb(51,135,255);"/>
                </g>
                <g transform="matrix(0.294171,0.0500585,-0.05856,0.364623,1305.74,713.051)">
                    <path d="M1971,899.053C1970.92,898.265 1970.1,897.668 1969.12,897.69C1968.14,897.712 1967.35,898.346 1967.31,899.136C1966.98,905.935 1966.66,912.337 1966.49,915.753C1966.46,916.427 1966.77,917.08 1967.34,917.564C1967.91,918.048 1968.71,918.321 1969.55,918.321C1969.55,918.321 1969.55,918.321 1969.55,918.321C1970.4,918.321 1971.21,918.035 1971.78,917.531C1972.36,917.028 1972.65,916.354 1972.59,915.673C1972.26,912.224 1971.65,905.83 1971,899.053Z" style="fill:rgb(51,135,255);"/>
                </g>
                <g transform="matrix(0.294171,0.0500585,-0.05856,0.364623,1339.89,768.644)">
                    <path d="M1969.51,883.471C1969.48,883.167 1969.16,882.936 1968.78,882.944C1968.4,882.953 1968.1,883.198 1968.08,883.503C1967.57,893.905 1966.79,909.629 1966.49,915.753C1966.46,916.427 1966.77,917.08 1967.34,917.564C1967.91,918.048 1968.71,918.321 1969.55,918.321C1969.55,918.321 1969.55,918.321 1969.55,918.321C1970.4,918.321 1971.21,918.035 1971.78,917.531C1972.36,917.028 1972.65,916.354 1972.59,915.673C1972,909.487 1970.5,893.827 1969.51,883.471Z" style="fill:rgb(51,135,255);"/>
                </g>
                <g transform="matrix(0.294171,0.0500585,-0.05856,0.364623,1295.05,766.726)">
                    <path d="M1971,899.053C1970.92,898.265 1970.1,897.668 1969.12,897.69C1968.14,897.712 1967.35,898.346 1967.31,899.136C1966.98,905.935 1966.66,912.337 1966.49,915.753C1966.46,916.427 1966.77,917.08 1967.34,917.564C1967.91,918.048 1968.71,918.321 1969.55,918.321C1969.55,918.321 1969.55,918.321 1969.55,918.321C1970.4,918.321 1971.21,918.035 1971.78,917.531C1972.36,917.028 1972.65,916.354 1972.59,915.673C1972.26,912.224 1971.65,905.83 1971,899.053Z" style="fill:rgb(51,135,255);"/>
                </g>
                <g transform="matrix(0.239937,0.0825291,-0.096545,0.2974,1464.47,746.635)">
                    <path d="M1969.6,884.43C1969.57,884.095 1969.22,883.842 1968.8,883.854C1968.39,883.866 1968.05,884.139 1968.04,884.476C1967.52,894.833 1966.79,909.736 1966.49,915.705C1966.46,916.393 1966.77,917.059 1967.35,917.551C1967.93,918.044 1968.74,918.321 1969.59,918.321C1969.6,918.321 1969.6,918.321 1969.61,918.321C1970.44,918.321 1971.23,918.038 1971.8,917.541C1972.37,917.044 1972.65,916.38 1972.59,915.712C1972.02,909.739 1970.59,894.793 1969.6,884.43Z" style="fill:rgb(51,135,255);"/>
                </g>
                <g transform="matrix(0.18849,0.0648335,-0.0758442,0.233632,1519.1,902.388)">
                    <path d="M1969.65,884.952C1969.62,884.6 1969.25,884.336 1968.82,884.348C1968.38,884.361 1968.03,884.647 1968.01,885C1967.5,895.303 1966.79,909.761 1966.5,915.659C1966.46,916.36 1966.78,917.037 1967.37,917.538C1967.96,918.039 1968.78,918.321 1969.65,918.321C1969.65,918.321 1969.66,918.321 1969.66,918.321C1970.48,918.321 1971.26,918.043 1971.82,917.554C1972.38,917.065 1972.66,916.411 1972.6,915.753C1972.04,909.907 1970.64,895.313 1969.65,884.952Z" style="fill:rgb(51,135,255);"/>
                </g>
                <g transform="matrix(0.248166,0.170123,-0.199015,0.3076,1549.54,538.757)">
                    <path d="M1969.78,886.299C1969.74,885.902 1969.33,885.605 1968.84,885.624C1968.36,885.642 1967.96,885.968 1967.94,886.368C1967.44,896.524 1966.78,909.96 1966.5,915.623C1966.46,916.335 1966.78,917.022 1967.37,917.529C1967.96,918.036 1968.78,918.321 1969.65,918.321C1969.65,918.321 1969.65,918.321 1969.65,918.321C1970.47,918.321 1971.25,918.038 1971.81,917.542C1972.37,917.045 1972.65,916.383 1972.59,915.718C1972.06,910.1 1970.76,896.521 1969.78,886.299Z" style="fill:rgb(51,135,255);"/>
                </g>
                <g transform="matrix(0.186456,0.12782,-0.149527,0.231111,1635.23,760.888)">
                    <path d="M1970.03,888.971C1969.99,888.489 1969.49,888.13 1968.9,888.153C1968.31,888.175 1967.83,888.57 1967.81,889.054C1967.33,898.801 1966.75,910.502 1966.5,915.659C1966.46,916.362 1966.77,917.039 1967.36,917.539C1967.94,918.04 1968.75,918.321 1969.61,918.321C1969.61,918.321 1969.62,918.321 1969.63,918.321C1970.45,918.321 1971.24,918.036 1971.8,917.535C1972.37,917.035 1972.65,916.367 1972.59,915.697C1972.1,910.545 1970.97,898.758 1970.03,888.971Z" style="fill:rgb(51,135,255);"/>
                </g>
                <g transform="matrix(0.175902,0.167392,-0.19582,0.218029,1749.24,665.992)">
                    <path d="M1969.86,887.105C1969.82,886.678 1969.38,886.361 1968.86,886.382C1968.34,886.402 1967.92,886.753 1967.9,887.182C1967.4,897.263 1966.77,910.195 1966.5,915.677C1966.46,916.375 1966.77,917.048 1967.34,917.545C1967.91,918.042 1968.71,918.321 1969.56,918.321C1969.56,918.321 1969.56,918.321 1969.57,918.321C1970.4,918.321 1971.21,918.027 1971.78,917.512C1972.36,916.997 1972.65,916.31 1972.58,915.622C1972.05,910.095 1970.82,897.164 1969.86,887.105Z" style="fill:rgb(51,135,255);"/>
                </g>
                <g transform="matrix(0.145928,0.138868,-0.162452,0.180877,1698.4,821.122)">
                    <path d="M1969.55,883.883C1969.52,883.559 1969.18,883.318 1968.79,883.333C1968.4,883.349 1968.08,883.615 1968.06,883.942C1967.55,894.281 1966.8,909.536 1966.5,915.647C1966.46,916.353 1966.77,917.034 1967.35,917.536C1967.93,918.039 1968.74,918.321 1969.59,918.321C1969.6,918.321 1969.6,918.321 1969.61,918.321C1970.43,918.322 1971.23,918.031 1971.8,917.523C1972.36,917.014 1972.65,916.336 1972.59,915.656C1972,909.54 1970.54,894.229 1969.55,883.883Z" style="fill:rgb(51,135,255);"/>
                </g>
                <g transform="matrix(0.145928,0.138868,-0.162452,0.180877,1745.47,796.492)">
                    <path d="M1969.84,886.92C1969.8,886.499 1969.37,886.187 1968.86,886.207C1968.35,886.228 1967.93,886.574 1967.91,886.997C1967.41,897.086 1966.77,910.114 1966.5,915.647C1966.46,916.353 1966.77,917.034 1967.35,917.536C1967.93,918.039 1968.74,918.321 1969.59,918.321C1969.6,918.321 1969.6,918.321 1969.61,918.321C1970.43,918.322 1971.23,918.031 1971.8,917.523C1972.36,917.014 1972.65,916.336 1972.59,915.656C1972.06,910.115 1970.8,897.026 1969.84,886.92Z" style="fill:rgb(51,135,255);"/>
                </g>
                <g transform="matrix(0.145928,0.138868,-0.162452,0.180877,1627.16,808.363)">
                    <path d="M1969.91,887.629C1969.86,887.186 1969.41,886.856 1968.87,886.878C1968.34,886.899 1967.9,887.263 1967.88,887.709C1967.38,897.691 1966.76,910.243 1966.5,915.647C1966.46,916.353 1966.77,917.034 1967.35,917.536C1967.93,918.039 1968.74,918.321 1969.59,918.321C1969.6,918.321 1969.6,918.321 1969.61,918.321C1970.43,918.322 1971.23,918.031 1971.8,917.523C1972.36,917.014 1972.65,916.336 1972.59,915.656C1972.07,910.243 1970.86,897.63 1969.91,887.629Z" style="fill:rgb(51,135,255);"/>
                </g>
                <g transform="matrix(-0.0482923,0.198435,-0.232136,-0.0598579,2218.53,894.137)">
                    <path d="M1969.99,888.49C1969.94,888.006 1969.46,887.631 1968.89,887.634C1968.32,887.637 1967.86,888.017 1967.84,888.502C1967.35,898.329 1966.76,910.344 1966.5,915.62C1966.46,916.322 1966.77,917.01 1967.35,917.521C1967.92,918.032 1968.72,918.321 1969.54,918.321C1969.55,918.321 1969.55,918.321 1969.55,918.321C1970.4,918.321 1971.21,918.02 1971.78,917.49C1972.36,916.96 1972.64,916.249 1972.57,915.525C1972.06,910.199 1970.92,898.262 1969.99,888.49Z" style="fill:rgb(51,135,255);"/>
                </g>
                <g transform="matrix(0.257492,-0.154744,0.181024,0.319159,1126.84,1192.48)">
                    <path d="M1969.59,884.294C1969.56,883.959 1969.21,883.697 1968.8,883.695C1968.39,883.693 1968.06,883.952 1968.05,884.286C1967.53,894.637 1966.79,909.661 1966.5,915.681C1966.46,916.365 1966.78,917.037 1967.36,917.537C1967.95,918.038 1968.76,918.321 1969.6,918.321C1969.6,918.321 1969.6,918.321 1969.6,918.321C1970.44,918.322 1971.24,918.038 1971.81,917.536C1972.37,917.035 1972.65,916.361 1972.59,915.671C1972.01,909.645 1970.58,894.638 1969.59,884.294Z" style="fill:rgb(51,135,255);"/>
                </g>
                <g transform="matrix(-0.0898557,0.292645,-0.342345,-0.111375,2349.45,768.772)">
                    <path d="M1970.94,898.433C1970.86,897.626 1970.06,896.999 1969.11,897.001C1968.16,897.003 1967.39,897.635 1967.35,898.442C1967,905.379 1966.68,911.996 1966.5,915.573C1966.47,916.287 1966.78,916.986 1967.37,917.506C1967.95,918.027 1968.76,918.321 1969.6,918.321C1969.61,918.321 1969.61,918.321 1969.61,918.321C1970.45,918.322 1971.24,918.027 1971.81,917.508C1972.37,916.989 1972.65,916.292 1972.58,915.583C1972.24,912.006 1971.6,905.379 1970.94,898.433Z" style="fill:rgb(51,135,255);"/>
                </g>
                <g transform="matrix(0.0776313,0.216943,-0.256606,0.0870408,1994.21,705.22)">
                    <path d="M1970.07,889.292C1970.02,888.783 1969.51,888.387 1968.91,888.388C1968.31,888.39 1967.82,888.788 1967.8,889.298C1967.32,898.943 1966.76,910.422 1966.5,915.577C1966.47,916.29 1966.78,916.988 1967.36,917.508C1967.95,918.027 1968.76,918.322 1969.6,918.321C1969.6,918.321 1969.61,918.321 1969.62,918.321C1970.45,918.322 1971.24,918.027 1971.81,917.509C1972.37,916.99 1972.65,916.293 1972.58,915.584C1972.09,910.431 1970.99,898.943 1970.07,889.292Z" style="fill:rgb(51,135,255);"/>
                </g>
                <g transform="matrix(-0.0950764,0.233261,0.272876,0.117847,1832.23,647.403)">
                    <path d="M1969.56,883.986C1969.53,883.651 1969.19,883.401 1968.79,883.414C1968.4,883.428 1968.07,883.701 1968.06,884.037C1967.55,894.339 1966.8,909.448 1966.5,915.582C1966.47,916.303 1966.77,917 1967.36,917.516C1967.94,918.031 1968.75,918.321 1969.6,918.321C1969.6,918.321 1969.61,918.321 1969.62,918.321C1970.44,918.321 1971.23,918.026 1971.8,917.507C1972.36,916.989 1972.65,916.296 1972.58,915.601C1971.99,909.47 1970.54,894.3 1969.56,883.986Z" style="fill:rgb(51,135,255);"/>
                </g>
                <g transform="matrix(0.211586,-0.127156,0.148751,0.262259,1289.8,1313.74)">
                    <path d="M1971.51,904.405C1971.42,903.438 1970.42,902.68 1969.24,902.674C1968.06,902.668 1967.1,903.417 1967.05,904.382C1966.82,909.03 1966.62,913.11 1966.5,915.636C1966.46,916.331 1966.78,917.015 1967.38,917.524C1967.98,918.033 1968.8,918.321 1969.65,918.321C1969.66,918.321 1969.66,918.321 1969.67,918.321C1970.49,918.321 1971.28,918.044 1971.83,917.553C1972.38,917.062 1972.66,916.402 1972.59,915.727C1972.35,913.213 1971.96,909.099 1971.51,904.405Z" style="fill:rgb(51,135,255);"/>
                </g>
                <g transform="matrix(0.154422,-0.0928026,0.108563,0.191405,1354.1,1232.49)">
                    <path d="M1970.13,889.939C1970.08,889.427 1969.55,889.025 1968.92,889.022C1968.3,889.018 1967.79,889.415 1967.77,889.926C1967.3,899.46 1966.75,910.588 1966.5,915.614C1966.46,916.315 1966.79,917.004 1967.39,917.517C1967.99,918.03 1968.82,918.321 1969.68,918.321C1969.69,918.321 1969.69,918.321 1969.7,918.321C1970.52,918.321 1971.29,918.047 1971.84,917.561C1972.39,917.076 1972.66,916.423 1972.6,915.755C1972.12,910.801 1971.05,899.56 1970.13,889.939Z" style="fill:rgb(51,135,255);"/>
                </g>
                <g transform="matrix(0.0652199,-0.299481,0.350342,0.0808396,1353.56,1730.57)">
                    <path d="M1969.12,879.363C1969.1,879.177 1968.91,879.032 1968.69,879.034C1968.47,879.035 1968.3,879.182 1968.29,879.368C1967.81,889.098 1966.85,908.518 1966.5,915.631C1966.46,916.331 1966.77,917.015 1967.34,917.524C1967.91,918.033 1968.7,918.321 1969.53,918.321C1969.53,918.321 1969.53,918.321 1969.53,918.321C1970.39,918.321 1971.2,918.019 1971.78,917.485C1972.35,916.952 1972.64,916.236 1972.57,915.508C1971.88,908.295 1970.04,889.035 1969.12,879.363Z" style="fill:rgb(51,135,255);"/>
                </g>
                <g transform="matrix(0.143897,-0.202031,0.236342,0.178359,1284.56,1494.46)">
                    <path d="M1969.52,883.614C1969.49,883.294 1969.17,883.043 1968.79,883.04C1968.4,883.038 1968.09,883.285 1968.08,883.604C1967.57,893.943 1966.8,909.458 1966.5,915.64C1966.46,916.334 1966.78,917.016 1967.36,917.524C1967.94,918.033 1968.74,918.321 1969.57,918.321C1969.57,918.321 1969.58,918.321 1969.58,918.321C1970.43,918.321 1971.23,918.029 1971.8,917.512C1972.36,916.996 1972.65,916.3 1972.58,915.589C1971.99,909.375 1970.51,893.924 1969.52,883.614Z" style="fill:rgb(51,135,255);"/>
                </g>
                <g transform="matrix(0.043471,-0.199613,0.233513,0.053882,1460.17,1599.62)">
                    <path d="M1969.82,886.735C1969.78,886.308 1969.36,885.978 1968.85,885.981C1968.35,885.984 1967.94,886.32 1967.92,886.747C1967.42,896.84 1966.78,909.989 1966.5,915.597C1966.47,916.305 1966.77,916.999 1967.35,917.514C1967.93,918.03 1968.73,918.321 1969.57,918.321C1969.57,918.321 1969.57,918.321 1969.58,918.321C1970.42,918.321 1971.22,918.023 1971.79,917.497C1972.36,916.97 1972.64,916.264 1972.58,915.546C1972.04,909.908 1970.78,896.8 1969.82,886.735Z" style="fill:rgb(51,135,255);"/>
                </g>
                <g transform="matrix(0.043471,-0.199613,0.233513,0.053882,1499.69,1584.6)">
                    <path d="M1969.86,887.196C1969.82,886.754 1969.38,886.412 1968.86,886.415C1968.34,886.419 1967.92,886.766 1967.9,887.209C1967.41,897.237 1966.77,910.074 1966.5,915.597C1966.47,916.305 1966.77,916.999 1967.35,917.514C1967.93,918.03 1968.73,918.321 1969.57,918.321C1969.57,918.321 1969.57,918.321 1969.58,918.321C1970.42,918.321 1971.22,918.023 1971.79,917.497C1972.36,916.97 1972.64,916.264 1972.58,915.546C1972.04,909.994 1970.82,897.196 1969.86,887.196Z" style="fill:rgb(51,135,255);"/>
                </g>
                <g transform="matrix(1,0,0,0.670488,230,448.481)">
                    <g transform="matrix(0.857143,0,0,1.00293,220,-34.0465)">
                        <path d="M1680,1300.23L1540,1300.23C1540,1300.23 1544.23,1329.14 1547.59,1352.14C1549.95,1368.29 1561.01,1380 1573.9,1380C1594.62,1380 1625.38,1380 1646.1,1380C1658.99,1380 1670.05,1368.29 1672.41,1352.14C1675.77,1329.14 1680,1300.23 1680,1300.23Z" style="fill:rgb(230,240,255);"/>
                    </g>
                    <path d="M1657.78,1287.78C1657.78,1287.78 1653.67,1279.97 1650,1280C1645.54,1280.04 1636.5,1284.63 1631,1288C1625.72,1291.24 1622,1300.23 1617,1300.23C1612,1300.23 1606.89,1291.22 1601,1288C1594.83,1284.63 1585.67,1279.33 1580,1280C1574.33,1280.67 1572.86,1291.31 1567,1292C1560.63,1292.75 1541.81,1284.5 1541.81,1284.5L1540,1270L1660,1270L1657.78,1287.78Z" style="fill:rgb(51,135,255);fill-opacity:0.4;"/>
                </g>
            </g>
        </g>
    </g>
</svg>
