<?xml version="1.0" encoding="UTF-8" standalone="no"?>
<!DOCTYPE svg PUBLIC "-//W3C//DTD SVG 1.1//EN" "http://www.w3.org/Graphics/SVG/1.1/DTD/svg11.dtd">
<svg width="100%" height="100%" viewBox="0 0 43 79" version="1.1" xmlns="http://www.w3.org/2000/svg" xmlns:xlink="http://www.w3.org/1999/xlink" xml:space="preserve" xmlns:serif="http://www.serif.com/" style="fill-rule:evenodd;clip-rule:evenodd;stroke-linejoin:round;stroke-miterlimit:2;">
    <g transform="matrix(1,0,0,1,-3697.58,-1917.87)">
        <g transform="matrix(1,0,0,1.02857,2807.58,-116.242)">
            <g id="plant-1" transform="matrix(0.488528,0,0,0.474958,565.365,1499.06)">
                <g id="vase-2">
                    <g transform="matrix(0.451684,0,0,0.58381,392.341,479.997)">
                        <path d="M750,1105L650,1105C636.667,1117.5 658.333,1167.5 670,1180L730,1180C741.667,1167.5 763.333,1117.5 750,1105Z" style="fill:rgb(230,240,255);"/>
                    </g>
                    <g transform="matrix(0.451684,0,0,0.58381,390.445,468.321)">
                        <path d="M740.217,1191.7C739.793,1192.39 739.372,1193.06 738.956,1193.7L669.439,1193.7C669.023,1193.06 668.603,1192.39 668.178,1191.7L740.217,1191.7ZM758.384,1139C758.369,1139.65 758.339,1140.32 758.293,1141L650.102,1141C650.057,1140.32 650.026,1139.65 650.011,1139L758.384,1139Z" style="fill:rgb(143,189,255);fill-opacity:0.8;"/>
                    </g>
                </g>
                <g id="plant-11" serif:id="plant-1">
                    <path d="M702,1125C702,1125 677.741,1042.55 705.761,1019C710.4,1015.1 715.186,1010.35 715.761,1009.5C728.966,990.006 710,1125 710,1125C706.379,1125.05 702,1125 702,1125Z" style="fill:rgb(128,180,255);fill-opacity:0.6;"/>
                    <g transform="matrix(1,0,0,1,-14.154,0)">
                        <path d="M713.154,1125C713.154,1125 708.56,1110.02 700.154,1097C684.744,1073.14 666.858,1038.1 689.154,1030C723.555,1017.5 721.154,1125 721.154,1125C717.533,1125.05 713.154,1125 713.154,1125Z" style="fill:rgb(128,180,255);fill-opacity:0.8;"/>
                    </g>
                    <g transform="matrix(1,0,0,1,-14.154,0)">
                        <path d="M717.207,1067.5C714.31,1058.25 712.116,1053.83 708.154,1049C693.839,1031.55 676.73,1036.77 688.654,1029.5C711.923,1022.22 717.207,1067.5 717.207,1067.5Z" style="fill:rgb(128,180,255);"/>
                    </g>
                    <g transform="matrix(-1,0,0,1,1427.3,0)">
                        <path d="M713.297,1125C713.297,1125 701.838,1096.87 687.297,1080.5C665.13,1055.55 683.833,1020.97 687.297,1028C696.1,1045.86 704.873,1049.98 711.297,1064C723.336,1090.27 721.154,1125 721.154,1125C717.533,1125.05 713.297,1125 713.297,1125Z" style="fill:rgb(128,180,255);fill-opacity:0.4;"/>
                    </g>
                    <g transform="matrix(-1,0,0,1,1427.3,0)">
                        <path d="M717.297,1125.11C715.238,1125.14 713.627,1089.64 706.797,1068.5C703.206,1057.39 703.646,1053.16 701.297,1048.8C701.982,1049.69 706.314,1053.77 709.297,1060.06C715.462,1073.05 717.297,1125.11 717.297,1125.11Z" style="fill:rgb(128,180,255);fill-opacity:0.8;"/>
                    </g>
                    <path d="M720.419,1022.5C720.419,1031.57 718.399,1054.03 718.354,1054.5C715.548,1084.37 710,1125 710,1125C710,1125 707.563,1053.38 715,1037C717.51,1031.47 717.852,1023.73 720.419,1022.5Z" style="fill:rgb(128,180,255);"/>
                </g>
            </g>
        </g>
    </g>
</svg>
